<svg width="57" height="55" viewBox="0 0 57 55" fill="none" xmlns="http://www.w3.org/2000/svg">
<path d="M47.5 9.16699L42.75 42.3962L28.5 46.9795L14.25 42.3962L9.5 9.16699H47.5Z" stroke="#CFC6C6" stroke-width="2" stroke-linecap="round" stroke-linejoin="round"/>
<path d="M39.1875 18.334H33.25C32.9351 18.334 32.633 18.4547 32.4103 18.6696C32.1876 18.8845 32.0625 19.1759 32.0625 19.4798V26.3548C32.0625 26.6587 32.1876 26.9502 32.4103 27.165C32.633 27.3799 32.9351 27.5007 33.25 27.5007H36.6296C36.7996 27.5007 36.9676 27.5359 37.1222 27.604C37.2769 27.672 37.4146 27.7713 37.526 27.8952C37.6375 28.019 37.7201 28.1645 37.7683 28.3218C37.8164 28.4791 37.829 28.6445 37.8053 28.8069L36.8125 35.5215L32.0625 36.6673M17.8125 18.334H24.9375V36.6673L20.1875 34.3757L17.8125 18.334Z" stroke="#CFC6C6" stroke-width="2" stroke-linecap="round" stroke-linejoin="round"/>
</svg>
